<svg width="56" height="84" viewBox="0 0 56 84" fill="none" xmlns="http://www.w3.org/2000/svg">
<path d="M41.8833 28.1167C45.4928 28.0084 48.9181 26.4984 51.4329 23.907C53.9477 21.3156 55.3542 17.8465 55.3542 14.2354C55.3542 10.6244 53.9477 7.15532 51.4329 4.5639C48.9181 1.97248 45.4928 0.462512 41.8833 0.354187H14.1167C10.5072 0.462512 7.08193 1.97248 4.56712 4.5639C2.05231 7.15532 0.645766 10.6244 0.645766 14.2354C0.645766 17.8465 2.05231 21.3156 4.56712 23.907C7.08193 26.4984 10.5072 28.0084 14.1167 28.1167C10.4757 28.1798 7.00514 29.6704 4.45258 32.2676C1.90003 34.8647 0.469707 38.3606 0.469707 42.0021C0.469707 45.6436 1.90003 49.1395 4.45258 51.7366C7.00514 54.3338 10.4757 55.8244 14.1167 55.8875C10.4935 55.9763 7.04853 57.478 4.51735 60.0719C1.98617 62.6659 0.569331 66.1466 0.569331 69.7709C0.569331 73.3951 1.98617 76.8758 4.51735 79.4698C7.04853 82.0637 10.4935 83.5654 14.1167 83.6542C17.7988 83.652 21.3294 82.188 23.9327 79.5839C26.536 76.9799 27.9989 73.4488 28 69.7667V28.1167H41.8833Z" fill="white" fill-opacity="0.5"/>
</svg>
