<svg width="72" height="82" viewBox="0 0 72 82" fill="none" xmlns="http://www.w3.org/2000/svg">
<path d="M0.17984 0.375L6.62515 73.2852L36.0002 81.625L65.258 73.2852L71.8302 0.375H0.17984ZM58.2853 17.6699L57.8166 22.2793L57.6505 24.1836H23.3341L24.1349 33.3828H56.8595L56.5373 35.7559L54.4669 59.4082L54.3009 60.9902L36.0392 66.0293V66.0586H35.922L35.8927 66.0684V66.0586H35.883L17.465 60.9805L16.3517 46.8594H25.2482L25.883 54.0078L35.883 56.7129H35.922L45.883 54.0176L46.9962 42.4355H35.8927V42.4258H15.883L13.6564 17.6699L13.4904 15.2969H58.4416L58.2853 17.6699Z" fill="white" fill-opacity="0.5"/>
</svg>
