<svg width="37" height="31" viewBox="0 0 37 31" fill="none" xmlns="http://www.w3.org/2000/svg">
<path fill-rule="evenodd" clip-rule="evenodd" d="M0.744995 4.22867C0.744995 3.14355 1.28899 2.10287 2.2573 1.33557C3.22561 0.56827 4.53892 0.137207 5.90832 0.137207H31.7249C33.0943 0.137207 34.4077 0.56827 35.376 1.33557C36.3443 2.10287 36.8883 3.14355 36.8883 4.22867V20.5945C36.8883 21.6796 36.3443 22.7203 35.376 23.4876C34.4077 24.2549 33.0943 24.686 31.7249 24.686H25.9937L26.3112 25.6863L28.3869 27.3311C28.7478 27.6172 28.9936 27.9817 29.0932 28.3785C29.1927 28.7752 29.1416 29.1865 28.9463 29.5603C28.7509 29.934 28.4201 30.2535 27.9956 30.4783C27.5712 30.7031 27.0721 30.8231 26.5616 30.8232H11.0716C10.5611 30.8231 10.0621 30.7031 9.63764 30.4783C9.21319 30.2535 8.88238 29.934 8.68702 29.5603C8.49167 29.1865 8.44054 28.7752 8.54011 28.3785C8.63968 27.9817 8.88547 27.6172 9.24641 27.3311L11.3221 25.6863L11.6396 24.686H5.90832C4.53892 24.686 3.22561 24.2549 2.2573 23.4876C1.28899 22.7203 0.744995 21.6796 0.744995 20.5945V4.22867ZM15.6438 18.5488H5.90832V4.22867H31.7249V18.5488H15.6438Z" fill="white"/>
</svg>
