<svg width="29" height="29" viewBox="0 0 29 29" fill="none" xmlns="http://www.w3.org/2000/svg">
<path fill-rule="evenodd" clip-rule="evenodd" d="M23.33 20.0154C24.896 14.4052 21.188 8.61062 15.0965 7.0439C8.2175 5.2727 -1.546 9.87206 0.625997 15.7717C1.346 17.7229 2.732 18.1794 5.3465 18.2154L5.51 18.2183C6.8915 18.2341 7.28 18.3205 7.397 18.502C7.5875 18.8015 7.5905 19.2781 7.376 20.59C7.274 21.2092 7.241 21.4252 7.202 21.7636C6.9635 23.8242 7.3265 25.4313 8.732 26.8857C13.124 31.426 21.5615 26.3485 23.33 20.0154ZM3.455 14.8098C2.3615 11.8434 9.359 8.54726 14.3195 9.8231C18.845 10.9881 21.5585 15.2289 20.432 19.2681C19.175 23.7724 13.259 27.3321 10.931 24.9244C10.211 24.1813 10.0325 23.3865 10.184 22.0804C10.2155 21.801 10.2455 21.6081 10.34 21.0349C10.6685 19.0233 10.664 18.1045 9.953 16.9943C9.062 15.6018 8.003 15.3671 5.5475 15.3369L5.3885 15.334C3.9425 15.3153 3.599 15.2015 3.4535 14.8098H3.455Z" fill="#222A36"/>
<path d="M8 14.3188C7.50272 14.3188 7.02581 14.1291 6.67417 13.7915C6.32254 13.454 6.125 12.9961 6.125 12.5188C6.125 12.0414 6.32254 11.5835 6.67417 11.246C7.02581 10.9084 7.50272 10.7188 8 10.7188C8.49728 10.7188 8.97419 10.9084 9.32583 11.246C9.67746 11.5835 9.875 12.0414 9.875 12.5188C9.875 12.9961 9.67746 13.454 9.32583 13.7915C8.97419 14.1291 8.49728 14.3188 8 14.3188Z" fill="#222A36"/>
<path d="M13.625 14.3188C13.1277 14.3188 12.6508 14.1291 12.2992 13.7915C11.9475 13.454 11.75 12.9961 11.75 12.5188C11.75 12.0414 11.9475 11.5835 12.2992 11.246C12.6508 10.9084 13.1277 10.7188 13.625 10.7188C14.1223 10.7188 14.5992 10.9084 14.9508 11.246C15.3025 11.5835 15.5 12.0414 15.5 12.5188C15.5 12.9961 15.3025 13.454 14.9508 13.7915C14.5992 14.1291 14.1223 14.3188 13.625 14.3188Z" fill="#222A36"/>
<path d="M17.375 18.6387C16.8777 18.6387 16.4008 18.4491 16.0492 18.1115C15.6975 17.7739 15.5 17.3161 15.5 16.8387C15.5 16.3613 15.6975 15.9035 16.0492 15.5659C16.4008 15.2283 16.8777 15.0387 17.375 15.0387C17.8723 15.0387 18.3492 15.2283 18.7008 15.5659C19.0525 15.9035 19.25 16.3613 19.25 16.8387C19.25 17.3161 19.0525 17.7739 18.7008 18.1115C18.3492 18.4491 17.8723 18.6387 17.375 18.6387Z" fill="#222A36"/>
<path d="M15.125 23.6787C14.6277 23.6787 14.1508 23.4891 13.7992 23.1515C13.4475 22.814 13.25 22.3561 13.25 21.8787C13.25 21.4013 13.4475 20.9435 13.7992 20.6059C14.1508 20.2684 14.6277 20.0787 15.125 20.0787C15.6223 20.0787 16.0992 20.2684 16.4508 20.6059C16.8025 20.9435 17 21.4013 17 21.8787C17 22.3561 16.8025 22.814 16.4508 23.1515C16.0992 23.4891 15.6223 23.6787 15.125 23.6787Z" fill="#222A36"/>
<path d="M20.555 5.1099C20.7329 5.01842 20.9281 4.96234 21.1291 4.94499C21.33 4.92765 21.5326 4.94941 21.7246 5.00897C21.9166 5.06852 22.0941 5.16466 22.2465 5.29161C22.3989 5.41856 22.523 5.57373 22.6115 5.74782L28.751 17.8438C28.8535 18.0612 28.8659 18.308 28.7857 18.5339C28.7055 18.7598 28.5387 18.9479 28.3192 19.0599C28.0997 19.172 27.844 19.1996 27.6041 19.1371C27.3641 19.0747 27.158 18.9268 27.0275 18.7237L19.9655 7.10286C19.864 6.93569 19.7987 6.75056 19.7735 6.55857C19.7483 6.36658 19.7638 6.17169 19.819 5.98558C19.8742 5.79947 19.9679 5.62598 20.0947 5.47551C20.2214 5.32503 20.3785 5.20068 20.5565 5.1099H20.555Z" fill="#222A36"/>
<path fill-rule="evenodd" clip-rule="evenodd" d="M17.8055 4.93568C18.536 6.25328 19.7645 6.62192 20.9525 6.01568C22.139 5.41088 22.5095 4.22576 21.779 2.90816C20.945 1.39904 19.157 0.0310425 17.972 0.634403C16.787 1.2392 16.97 3.42656 17.807 4.93568H17.8055ZM19.13 4.25888C18.8644 3.74687 18.7016 3.19144 18.65 2.6216C18.6277 2.38338 18.6367 2.14341 18.677 1.90736L18.704 1.92032C18.779 1.95488 19.0115 2.05856 19.3085 2.28608C19.7615 2.63312 20.2115 3.14432 20.4545 3.58352C20.798 4.20272 20.7005 4.51376 20.2475 4.7456C19.7975 4.976 19.4735 4.87808 19.13 4.26032V4.25888Z" fill="#222A36"/>
</svg>
