<svg width="100" height="90" viewBox="0 0 100 90" fill="none" xmlns="http://www.w3.org/2000/svg">
<path d="M100 44.7042C100 38.0792 91.7042 31.8 78.9833 27.9084C81.9208 14.9459 80.6167 4.62919 74.8667 1.32502C73.4734 0.544689 71.8965 0.151904 70.3 0.18752V4.72919C71.2375 4.72919 71.9917 4.91669 72.625 5.26252C75.3958 6.85419 76.6 12.9042 75.6625 20.6917C75.4375 22.6084 75.0708 24.625 74.6208 26.6834C70.361 25.6568 66.0375 24.9149 61.6792 24.4625C59.0827 20.8804 56.25 17.4756 53.2 14.2709C59.8458 8.09586 66.0833 4.71252 70.325 4.71252V0.166687C64.7167 0.166687 57.3792 4.16252 49.9583 11.0917C42.5417 4.20835 35.2 0.25002 29.5958 0.25002V4.79169C33.8167 4.79169 40.075 8.15835 46.7208 14.2917C43.8667 17.2917 41.0125 20.6917 38.3 24.4625C33.9326 24.9099 29.6015 25.6589 25.3375 26.7042C24.8667 24.6667 24.5208 22.6917 24.275 20.7959C23.3167 13.0042 24.5 6.95419 27.2542 5.34585C27.8625 4.97919 28.6583 4.81252 29.5958 4.81252V0.270854C27.8875 0.270854 26.3333 0.63752 24.9917 1.40835C19.2625 4.71252 17.9792 15.0042 20.9333 27.9292C8.25417 31.8459 0 38.1 0 44.7042C0 51.3292 8.29583 57.6084 21.0167 61.4959C18.0792 74.4625 19.3833 84.7792 25.1333 88.0792C26.4583 88.8542 28.0083 89.2209 29.7167 89.2209C35.325 89.2209 42.6625 85.225 50.0833 78.2959C57.5 85.1834 64.8375 89.1375 70.4458 89.1375C72.0546 89.1715 73.6435 88.7775 75.05 87.9959C80.7792 84.6959 82.0625 74.4042 79.1083 61.4792C91.7458 57.5875 100 51.3084 100 44.7042ZM73.4583 31.1084C72.6666 33.8328 71.7489 36.519 70.7083 39.1584C69.0048 35.8448 67.1344 32.6199 65.1042 29.4959C68 29.925 70.7917 30.4542 73.4625 31.1084H73.4583ZM64.125 52.8167C62.5375 55.5667 60.9042 58.1792 59.2125 60.6042C53.0969 61.1432 46.946 61.1502 40.8292 60.625C37.3206 55.6133 34.2522 50.3074 31.6583 44.7667C34.2483 39.213 37.3036 33.8884 40.7917 28.85C46.9058 28.3099 53.0553 28.3015 59.1708 28.825C60.8625 31.25 62.5167 33.8417 64.1042 36.575C65.6542 39.2417 67.0625 41.95 68.3458 44.6834C67.0483 47.4498 65.6402 50.1631 64.125 52.8167ZM70.7083 50.1667C71.8083 52.8959 72.75 55.6292 73.5208 58.2792C70.8542 58.9334 68.0375 59.4834 65.125 59.9084C67.1468 56.7559 69.0103 53.5047 70.7083 50.1667ZM50.0417 71.9167C48.1458 69.9584 46.25 67.7792 44.375 65.3917C46.2083 65.475 48.0833 65.5375 49.9792 65.5375C51.8958 65.5375 53.7917 65.4959 55.6458 65.3917C53.8125 67.7792 51.9167 69.9584 50.0417 71.9167ZM34.875 59.9084C32.0656 59.5013 29.2765 58.9646 26.5167 58.3C27.2708 55.6709 28.2083 52.9584 29.2667 50.25C30.1042 51.875 30.9833 53.5084 31.9417 55.1417C32.9 56.7709 33.875 58.3625 34.875 59.9084ZM49.9375 17.4917C51.8333 19.45 53.7292 21.6292 55.6042 24.0167C53.7708 23.9334 51.8958 23.8709 50 23.8709C48.0833 23.8709 46.1875 23.9125 44.3333 24.0167C46.1667 21.6292 48.0625 19.45 49.9375 17.4917ZM34.8542 29.5C32.8328 32.6456 30.9694 35.8899 29.2708 39.2209C28.2009 36.5644 27.2623 33.857 26.4583 31.1084C29.125 30.475 31.9417 29.925 34.8542 29.5ZM16.4083 55.0167C9.19167 51.9417 4.525 47.9042 4.525 44.7042C4.525 41.5042 9.19167 37.4459 16.4083 34.3917C18.1583 33.6375 20.075 32.9625 22.0542 32.3334C23.2167 36.325 24.7458 40.4834 26.6375 44.7459C24.8515 48.755 23.3411 52.8812 22.1167 57.0959C20.181 56.4965 18.276 55.8026 16.4083 55.0167ZM27.375 84.1417C24.6042 82.5584 23.4 76.5 24.3375 68.7167C24.5625 66.8 24.9292 64.7792 25.3792 62.7209C29.3708 63.7 33.7333 64.4542 38.3208 64.9459C40.9174 68.5279 43.7501 71.9327 46.8 75.1375C40.1542 81.3125 33.9167 84.6959 29.675 84.6959C28.8748 84.7046 28.0847 84.5157 27.375 84.1459V84.1417ZM75.725 68.6125C76.6833 76.4 75.5 82.4542 72.7458 84.0625C72.1375 84.4292 71.3417 84.5917 70.4042 84.5917C66.1833 84.5917 59.925 81.2292 53.2792 75.0917C56.1333 72.1 58.9875 68.6959 61.7 64.925C66.0674 64.4776 70.3985 63.7286 74.6625 62.6834C75.1333 64.7417 75.4958 66.7167 75.725 68.6125ZM83.5708 55.0167C81.8208 55.7709 79.9042 56.4459 77.925 57.075C76.6791 52.8388 75.1478 48.6919 73.3417 44.6625C75.2167 40.425 76.7208 36.2875 77.8625 32.3125C79.8833 32.9417 81.7958 33.6375 83.5917 34.3917C90.8083 37.4667 95.475 41.5042 95.475 44.7042C95.4542 47.9042 90.7875 51.9625 83.5708 55.0167Z" fill="white" fill-opacity="0.5"/>
</svg>
