<svg width="102" height="76" viewBox="0 0 102 76" fill="none" xmlns="http://www.w3.org/2000/svg">
<path d="M48.1624 57.2063C48.1155 57.3 48.0687 57.375 48.1624 57.2063V57.2063ZM87.0874 43.6125C83.9437 43.6125 80.8437 44.3313 78.0249 45.7219C77.103 43.8625 76.1499 42.2375 75.9937 41.0188C75.8062 39.5969 75.603 38.7531 75.8218 37.0656C76.0405 35.3781 77.0249 32.9875 77.0093 32.8156C76.9937 32.6438 76.7905 31.7844 74.7749 31.7688C72.7593 31.7531 71.0249 32.1594 70.8218 32.6906C70.4651 33.6613 70.1882 34.6594 69.9937 35.675C69.6343 37.5031 65.9655 44.0344 63.8874 47.4406C63.1999 46.1125 62.6218 44.9406 62.4968 44.0031C62.3093 42.5813 62.1062 41.7375 62.3249 40.05C62.5437 38.3625 63.528 35.9719 63.5124 35.8C63.4968 35.6281 63.2937 34.7688 61.2812 34.7531C59.2687 34.7375 57.5312 35.1438 57.328 35.675C57.1249 36.2063 56.9062 37.4563 56.4999 38.6594C56.0937 39.8625 51.203 50.7375 49.9249 53.5656C49.2687 55.0031 48.7062 56.1594 48.2999 56.9406C48.2374 57.0656 48.1905 57.1438 48.1593 57.2063C48.2062 57.1281 48.2374 57.05 48.2374 57.0813C47.8937 57.7531 47.6905 58.1281 47.6905 58.1281V58.1438C47.4249 58.6438 47.128 59.0969 46.9874 59.0969C46.8937 59.0969 46.6905 57.7844 47.0343 55.9875C47.7687 52.2063 49.503 46.3313 49.4874 46.1281C49.4718 46.0188 49.8155 45.0031 48.3468 44.4563C46.9249 43.9406 46.4093 44.8 46.2843 44.8C46.1593 44.8 46.0655 45.1125 46.0655 45.1125C46.0655 45.1125 47.6437 38.4875 43.0343 38.4875C40.1593 38.4875 36.1593 41.6438 34.1937 44.5031C32.9593 45.175 30.2874 46.6281 27.4749 48.175L24.2405 49.9563C24.1624 49.8781 24.0999 49.8 24.0218 49.7219C18.428 43.7531 8.10304 39.5344 8.54054 31.5188C8.69679 28.5969 9.71241 20.925 28.3968 11.6125C43.7093 3.98751 55.9499 6.08126 58.0593 10.7375C61.0905 17.3781 51.5124 29.7375 35.6124 31.5188C29.5499 32.1906 26.3655 29.8469 25.5687 28.9719C24.7405 28.05 24.6155 28.0031 24.303 28.175C23.7874 28.4563 24.1155 29.2688 24.303 29.7531C24.7718 30.9875 26.7249 33.175 30.053 34.2688C32.9749 35.2219 40.0812 35.7531 48.6718 32.425C58.3249 28.7063 65.8405 18.3469 63.6343 9.67501C61.3905 0.862508 46.778 -2.02812 32.9624 2.87813C24.728 5.80001 15.8249 10.3938 9.42179 16.3781C1.81241 23.5031 0.596785 29.7063 1.09678 32.3C2.87803 41.5031 15.5624 47.5031 20.6374 51.9406L19.9343 52.3313C17.3874 53.5969 7.71866 58.6594 5.29679 64.0031C2.56241 70.0656 5.74991 74.4094 7.84053 75.0031C14.3718 76.8156 21.0562 73.55 24.6499 68.1906C28.2437 62.8313 27.8062 55.8313 26.1499 52.6438C26.1343 52.5969 26.103 52.5656 26.0874 52.5188C27.9623 51.4082 29.8531 50.3248 31.7593 49.2688C31.1343 50.9563 30.6812 52.9875 30.4468 55.925C30.1655 59.3625 31.5874 63.8156 33.4312 65.5656C34.2437 66.3313 35.2249 66.3469 35.8374 66.3469C37.9937 66.3469 38.9624 64.5656 40.0405 62.4406C41.3687 59.8469 42.5405 56.8313 42.5405 56.8313C42.5405 56.8313 41.0718 64.9875 45.0874 64.9875C46.5562 64.9875 48.0249 63.0969 48.6812 62.1281V62.1438C48.6812 62.1438 48.7124 62.0813 48.7905 61.9563C48.9468 61.7219 49.0249 61.5813 49.0249 61.5813V61.5344C49.6187 60.5188 50.9155 58.1906 52.8687 54.3469C55.3999 49.3781 57.8187 43.175 57.8187 43.175C58.053 44.5375 58.378 45.8844 58.7874 47.2063C59.2249 48.6906 60.1468 50.3156 60.8812 51.8938C60.2874 52.7063 59.928 53.175 59.928 53.175C59.928 53.1875 59.9343 53.1969 59.9437 53.2063C59.4749 53.8313 58.9437 54.5031 58.3968 55.1594C56.3999 57.5344 54.0218 60.2531 53.7093 61.0344C53.3343 61.9563 53.428 62.6438 54.1468 63.175C54.678 63.5813 55.6155 63.6438 56.5999 63.5656C58.3968 63.4406 59.6624 63.0031 60.2718 62.7219C61.3957 62.3192 62.458 61.7617 63.428 61.0656C65.3812 59.6281 66.5687 57.5656 66.4593 54.8469C66.3968 53.3469 65.9124 51.8469 65.3187 50.4406C65.4905 50.1906 65.678 49.925 65.8499 49.6594C67.8833 46.6255 69.7153 43.4614 71.3343 40.1875C71.5687 41.55 71.8905 42.8969 72.303 44.2188C72.678 45.4844 73.4124 46.875 74.0843 48.2344C71.178 50.5938 69.3812 53.3281 68.7593 55.125C67.603 58.4531 68.5093 59.9531 70.2124 60.2969C70.978 60.4531 72.0718 60.0938 72.8843 59.75C74.0905 59.3469 75.228 58.7625 76.2562 58.0156C78.2093 56.5781 80.0999 54.5625 79.9718 51.8281C79.9249 50.5938 79.5812 49.3594 79.128 48.1719C81.5812 47.1406 84.7687 46.5781 88.8312 47.0469C97.5312 48.0625 99.2343 53.5 98.9062 55.7656C98.578 58.0313 96.7499 59.2969 96.1405 59.6719C95.5312 60.0469 95.3437 60.1875 95.3905 60.4688C95.4687 60.875 95.7499 60.8594 96.2655 60.7656C96.9843 60.6406 100.828 58.9219 101 54.7188C101.25 49.4063 96.1405 43.5625 87.0937 43.6094L87.0874 43.6125ZM20.028 66.2219C17.153 69.3625 13.1249 70.55 11.3905 69.55C9.53116 68.4688 10.2655 63.8469 13.8093 60.5C15.9655 58.4688 18.7468 56.5938 20.5905 55.4375C21.0124 55.1875 21.6218 54.8125 22.3718 54.3594C22.4327 54.3203 22.4953 54.2838 22.5593 54.25C22.6999 54.1563 22.8562 54.0781 23.0124 53.9844C24.3062 58.7344 23.0593 62.9219 20.028 66.2188V66.2219ZM41.0218 51.9406C40.0218 54.3938 37.9155 60.6438 36.6312 60.3156C35.5374 60.0344 34.8655 55.2688 36.4124 50.5813C37.1937 48.2219 38.8499 45.4094 39.8343 44.3156C41.4124 42.55 43.1468 41.9875 43.553 42.6906C44.0999 43.6125 41.6468 50.4094 41.0218 51.9406ZM58.3655 60.2219C57.9437 60.4406 57.553 60.5813 57.3655 60.4719C57.2249 60.3938 57.5374 60.0969 57.5374 60.0969C57.5374 60.0969 59.7093 57.7688 60.5687 56.7063C61.0687 56.0813 61.6468 55.3469 62.2718 54.5344C62.2718 54.6125 62.2874 54.6906 62.2874 54.7844C62.2687 57.5813 59.5812 59.4719 58.3624 60.2219H58.3655ZM71.7405 57.175C71.428 56.9563 71.4749 56.2219 72.5218 53.9406C72.928 53.05 73.8655 51.55 75.4905 50.1125C75.6749 50.6563 75.7749 51.225 75.7874 51.8C75.7718 55.3156 73.2562 56.6281 71.7405 57.175Z" fill="white" fill-opacity="0.5"/>
</svg>
